ffmpeg started on 2025-05-25 at 18:49:12
Report written to "D:\Convert\FFMetrics\reports\ssim_report-6.txt"
Log level: 32
Command line:
ffmpeg -hide_banner -nostdin -i "G:\\\xc0\xed\xe8\xec\xe5\\\xce\xed\xe3\xee\xe8\xed\xe3\xe8\\!_34_\xc2\xe5\xf1\xed\xe0_2024\\JamClub\\\xc1\xee\xf0\xfc\xe1\xe0 \xe2 \xef\xf0\xff\xec\xee\xec \xfd\xf4\xe8\xf0\xe5\\[JAM_CLUB]_Kenka_Dokugaku_02_[1080p][RUS][DUB]_HEVC.mkv" -i "G:\\\xc0\xed\xe8\xec\xe5\\\xce\xed\xe3\xee\xe8\xed\xe3\xe8\\!_34_\xc2\xe5\xf1\xed\xe0_2024\\JamClub\\\xc1\xee\xf0\xfc\xe1\xe0 \xe2 \xef\xf0\xff\xec\xee\xec \xfd\xf4\xe8\xf0\xe5\\[JAM_CLUB]_Kenka_Dokugaku_02_[1080p][RUS][DUB].mp4" -lavfi "[0:v]settb=AVTB,setpts=PTS-STARTPTS,format=pix_fmts=yuv420p10,fps=24000/1001,scale=1920:1080:flags=bicubic[main];[1:v]settb=AVTB,setpts=PTS-STARTPTS,format=pix_fmts=yuv420p,fps=24000/1001,scale=1920:1080:flags=bicubic[ref];[main][ref]ssim=eof_action=endall:stats_file='D\\:/Convert/FFMetrics/logs/ssim_logfile-6.txt'" -f null -
Input #0, matroska,webm, from 'G:\Аниме\Онгоинги\!_34_Весна_2024\JamClub\Борьба в прямом эфире\[JAM_CLUB]_Kenka_Dokugaku_02_[1080p][RUS][DUB]_HEVC.mkv':
  Metadata:
    COMPATIBLE_BRANDS: isomiso2avc1mp41
    MAJOR_BRAND     : isom
    MINOR_VERSION   : 512
    ENCODER         : Lavf61.7.100
  Duration: 00:23:17.36, start: -0.021000, bitrate: 1302 kb/s
  Stream #0:0: Video: hevc (Main 10), yuv420p10le(tv, bt709, progressive), 1920x1080 [SAR 1:1 DAR 16:9], 23.98 fps, 23.98 tbr, 1k tbn (default)
      Metadata:
        HANDLER_NAME    : VideoHandler
        VENDOR_ID       : [0][0][0][0]
        ENCODER         : Lavc61.19.100 libx265
        BPS             : 1102665
        DURATION        : 00:23:17.186708333
        NUMBER_OF_FRAMES: 33499
        NUMBER_OF_BYTES : 192578527
        _STATISTICS_WRITING_APP: mkvpropedit v66.0.0 ('Josie') 64-bit
        _STATISTICS_WRITING_DATE_UTC: 2025-05-25 12:49:36
        _STATISTICS_TAGS: BPS DURATION NUMBER_OF_FRAMES NUMBER_OF_BYTES
  Stream #0:1(eng): Audio: aac (LC), 48000 Hz, stereo, fltp (default)
      Metadata:
        HANDLER_NAME    : SoundHandler
        VENDOR_ID       : [0][0][0][0]
        ENCODER         : Lavc61.19.100 aac
        BPS             : 195657
        DURATION        : 00:23:17.336000000
        NUMBER_OF_FRAMES: 65501
        NUMBER_OF_BYTES : 34174872
        _STATISTICS_WRITING_APP: mkvpropedit v66.0.0 ('Josie') 64-bit
        _STATISTICS_WRITING_DATE_UTC: 2025-05-25 12:49:36
        _STATISTICS_TAGS: BPS DURATION NUMBER_OF_FRAMES NUMBER_OF_BYTES
Input #1, mov,mp4,m4a,3gp,3g2,mj2, from 'G:\Аниме\Онгоинги\!_34_Весна_2024\JamClub\Борьба в прямом эфире\[JAM_CLUB]_Kenka_Dokugaku_02_[1080p][RUS][DUB].mp4':
  Metadata:
    major_brand     : isom
    minor_version   : 512
    compatible_brands: isomiso2avc1mp41
    encoder         : Lavf58.45.100
  Duration: 00:23:17.34, start: 0.000000, bitrate: 4155 kb/s
  Stream #1:0[0x1](und): Video: h264 (High) (avc1 / 0x31637661), yuv420p(tv, bt709, progressive), 1920x1080 [SAR 1:1 DAR 16:9], 3957 kb/s, 23.98 fps, 23.98 tbr, 90k tbn (default)
      Metadata:
        handler_name    : VideoHandler
        vendor_id       : [0][0][0][0]
  Stream #1:1[0x2](eng): Audio: aac (LC) (mp4a / 0x6134706D), 48000 Hz, stereo, fltp, 191 kb/s (default)
      Metadata:
        handler_name    : SoundHandler
        vendor_id       : [0][0][0][0]
Stream mapping:
  Stream #0:0 (hevc) -> settb:default
  Stream #1:0 (h264) -> settb:default
  ssim:default -> Stream #0:0 (wrapped_avframe)
  Stream #0:1 -> #0:1 (aac (native) -> pcm_s16le (native))
Output #0, null, to 'pipe:':
  Metadata:
    COMPATIBLE_BRANDS: isomiso2avc1mp41
    MAJOR_BRAND     : isom
    MINOR_VERSION   : 512
    encoder         : Lavf61.7.100
  Stream #0:0: Video: wrapped_avframe, yuv420p10le(tv, bt709, progressive), 1920x1080 [SAR 1:1 DAR 16:9], q=2-31, 200 kb/s, 23.98 fps, 23.98 tbn
      Metadata:
        encoder         : Lavc61.19.100 wrapped_avframe
  Stream #0:1(eng): Audio: pcm_s16le, 48000 Hz, stereo, s16, 1536 kb/s (default)
      Metadata:
        HANDLER_NAME    : SoundHandler
        VENDOR_ID       : [0][0][0][0]
        _STATISTICS_TAGS: BPS DURATION NUMBER_OF_FRAMES NUMBER_OF_BYTES
        BPS             : 195657
        DURATION        : 00:23:17.336000000
        NUMBER_OF_FRAMES: 65501
        NUMBER_OF_BYTES : 34174872
        _STATISTICS_WRITING_APP: mkvpropedit v66.0.0 ('Josie') 64-bit
        _STATISTICS_WRITING_DATE_UTC: 2025-05-25 12:49:36
        encoder         : Lavc61.19.100 pcm_s16le
frame=  121 fps=0.0 q=-0.0 size=N/A time=00:00:05.04 bitrate=N/A speed=9.86x    frame=  291 fps=284 q=-0.0 size=N/A time=00:00:12.13 bitrate=N/A speed=11.8x    frame=  513 fps=331 q=-0.0 size=N/A time=00:00:21.39 bitrate=N/A speed=13.8x    frame=  750 fps=365 q=-0.0 size=N/A time=00:00:31.28 bitrate=N/A speed=15.2x    frame=  951 fps=369 q=-0.0 size=N/A time=00:00:39.66 bitrate=N/A speed=15.4x    frame= 1174 fps=380 q=-0.0 size=N/A time=00:00:48.96 bitrate=N/A speed=15.9x    frame= 1381 fps=383 q=-0.0 size=N/A time=00:00:57.59 bitrate=N/A speed=  16x    frame= 1572 fps=382 q=-0.0 size=N/A time=00:01:05.56 bitrate=N/A speed=15.9x    frame= 1774 fps=382 q=-0.0 size=N/A time=00:01:13.99 bitrate=N/A speed=15.9x    frame= 1996 fps=388 q=-0.0 size=N/A time=00:01:23.24 bitrate=N/A speed=16.2x    frame= 2213 fps=390 q=-0.0 size=N/A time=00:01:32.30 bitrate=N/A speed=16.3x    frame= 2428 fps=393 q=-0.0 size=N/A time=00:01:41.26 bitrate=N/A speed=16.4x    frame= 2627 fps=392 q=-0.0 size=N/A time=00:01:49.56 bitrate=N/A speed=16.3x    frame= 2852 fps=396 q=-0.0 size=N/A time=00:01:58.95 bitrate=N/A speed=16.5x    frame= 3062 fps=396 q=-0.0 size=N/A time=00:02:07.71 bitrate=N/A speed=16.5x    frame= 3299 fps=400 q=-0.0 size=N/A time=00:02:17.59 bitrate=N/A speed=16.7x    frame= 3523 fps=402 q=-0.0 size=N/A time=00:02:26.93 bitrate=N/A speed=16.8x    frame= 3777 fps=407 q=-0.0 size=N/A time=00:02:37.53 bitrate=N/A speed=  17x    frame= 4041 fps=412 q=-0.0 size=N/A time=00:02:48.54 bitrate=N/A speed=17.2x    frame= 4327 fps=419 q=-0.0 size=N/A time=00:03:00.47 bitrate=N/A speed=17.5x    frame= 4591 fps=424 q=-0.0 size=N/A time=00:03:11.48 bitrate=N/A speed=17.7x    frame= 4739 fps=418 q=-0.0 size=N/A time=00:03:17.65 bitrate=N/A speed=17.4x    frame= 4936 fps=416 q=-0.0 size=N/A time=00:03:25.87 bitrate=N/A speed=17.4x    frame= 5170 fps=418 q=-0.0 size=N/A time=00:03:35.63 bitrate=N/A speed=17.4x    frame= 5437 fps=421 q=-0.0 size=N/A time=00:03:46.76 bitrate=N/A speed=17.6x    frame= 5711 fps=425 q=-0.0 size=N/A time=00:03:58.19 bitrate=N/A speed=17.7x    frame= 5966 fps=428 q=-0.0 size=N/A time=00:04:08.83 bitrate=N/A speed=17.9x    frame= 6172 fps=427 q=-0.0 size=N/A time=00:04:17.42 bitrate=N/A speed=17.8x    frame= 6380 fps=426 q=-0.0 size=N/A time=00:04:26.09 bitrate=N/A speed=17.8x    frame= 6625 fps=428 q=-0.0 size=N/A time=00:04:36.31 bitrate=N/A speed=17.8x    frame= 6794 fps=425 q=-0.0 size=N/A time=00:04:43.36 bitrate=N/A speed=17.7x    frame= 7013 fps=424 q=-0.0 size=N/A time=00:04:52.50 bitrate=N/A speed=17.7x    frame= 7166 fps=421 q=-0.0 size=N/A time=00:04:58.88 bitrate=N/A speed=17.6x    frame= 7333 fps=418 q=-0.0 size=N/A time=00:05:05.84 bitrate=N/A speed=17.4x    frame= 7557 fps=418 q=-0.0 size=N/A time=00:05:15.18 bitrate=N/A speed=17.5x    frame= 7798 fps=420 q=-0.0 size=N/A time=00:05:25.24 bitrate=N/A speed=17.5x    frame= 8071 fps=423 q=-0.0 size=N/A time=00:05:36.62 bitrate=N/A speed=17.6x    frame= 8257 fps=421 q=-0.0 size=N/A time=00:05:44.38 bitrate=N/A speed=17.6x    frame= 8500 fps=422 q=-0.0 size=N/A time=00:05:54.52 bitrate=N/A speed=17.6x    frame= 8749 fps=424 q=-0.0 size=N/A time=00:06:04.90 bitrate=N/A speed=17.7x    frame= 8982 fps=425 q=-0.0 size=N/A time=00:06:14.62 bitrate=N/A speed=17.7x    frame= 9256 fps=427 q=-0.0 size=N/A time=00:06:26.05 bitrate=N/A speed=17.8x    frame= 9534 fps=430 q=-0.0 size=N/A time=00:06:37.64 bitrate=N/A speed=17.9x    frame= 9764 fps=430 q=-0.0 size=N/A time=00:06:47.24 bitrate=N/A speed=17.9x    frame=10017 fps=431 q=-0.0 size=N/A time=00:06:57.79 bitrate=N/A speed=  18x    frame=10232 fps=431 q=-0.0 size=N/A time=00:07:06.75 bitrate=N/A speed=  18x    frame=10500 fps=433 q=-0.0 size=N/A time=00:07:17.93 bitrate=N/A speed=18.1x    frame=10712 fps=433 q=-0.0 size=N/A time=00:07:26.77 bitrate=N/A speed=  18x    frame=10943 fps=433 q=-0.0 size=N/A time=00:07:36.41 bitrate=N/A speed=  18x    frame=11159 fps=433 q=-0.0 size=N/A time=00:07:45.42 bitrate=N/A speed=  18x    frame=11397 fps=433 q=-0.0 size=N/A time=00:07:55.34 bitrate=N/A speed=18.1x    frame=11635 fps=434 q=-0.0 size=N/A time=00:08:05.27 bitrate=N/A speed=18.1x    frame=11937 fps=437 q=-0.0 size=N/A time=00:08:17.87 bitrate=N/A speed=18.2x    frame=12215 fps=439 q=-0.0 size=N/A time=00:08:29.46 bitrate=N/A speed=18.3x    frame=12465 fps=439 q=-0.0 size=N/A time=00:08:39.89 bitrate=N/A speed=18.3x    frame=12704 fps=440 q=-0.0 size=N/A time=00:08:49.86 bitrate=N/A speed=18.3x    frame=12981 fps=441 q=-0.0 size=N/A time=00:09:01.41 bitrate=N/A speed=18.4x    frame=13233 fps=442 q=-0.0 size=N/A time=00:09:11.92 bitrate=N/A speed=18.4x    frame=13480 fps=443 q=-0.0 size=N/A time=00:09:22.22 bitrate=N/A speed=18.5x    frame=13742 fps=444 q=-0.0 size=N/A time=00:09:33.15 bitrate=N/A speed=18.5x    frame=13971 fps=444 q=-0.0 size=N/A time=00:09:42.70 bitrate=N/A speed=18.5x    frame=14242 fps=445 q=-0.0 size=N/A time=00:09:54.01 bitrate=N/A speed=18.6x    frame=14490 fps=446 q=-0.0 size=N/A time=00:10:04.35 bitrate=N/A speed=18.6x    frame=14731 fps=446 q=-0.0 size=N/A time=00:10:14.40 bitrate=N/A speed=18.6x    frame=15005 fps=448 q=-0.0 size=N/A time=00:10:25.83 bitrate=N/A speed=18.7x    frame=15259 fps=448 q=-0.0 size=N/A time=00:10:36.42 bitrate=N/A speed=18.7x    frame=15524 fps=449 q=-0.0 size=N/A time=00:10:47.48 bitrate=N/A speed=18.7x    frame=15832 fps=451 q=-0.0 size=N/A time=00:11:00.32 bitrate=N/A speed=18.8x    frame=16115 fps=453 q=-0.0 size=N/A time=00:11:12.12 bitrate=N/A speed=18.9x    frame=16400 fps=454 q=-0.0 size=N/A time=00:11:24.01 bitrate=N/A speed=18.9x    frame=16694 fps=456 q=-0.0 size=N/A time=00:11:36.27 bitrate=N/A speed=  19x    frame=16998 fps=457 q=-0.0 size=N/A time=00:11:48.95 bitrate=N/A speed=19.1x    frame=17244 fps=458 q=-0.0 size=N/A time=00:11:59.21 bitrate=N/A speed=19.1x    frame=17509 fps=458 q=-0.0 size=N/A time=00:12:10.27 bitrate=N/A speed=19.1x    frame=17748 fps=458 q=-0.0 size=N/A time=00:12:20.23 bitrate=N/A speed=19.1x    frame=18007 fps=459 q=-0.0 size=N/A time=00:12:31.04 bitrate=N/A speed=19.1x    frame=18249 fps=459 q=-0.0 size=N/A time=00:12:41.13 bitrate=N/A speed=19.1x    frame=18521 fps=460 q=-0.0 size=N/A time=00:12:52.48 bitrate=N/A speed=19.2x    frame=18771 fps=460 q=-0.0 size=N/A time=00:13:02.90 bitrate=N/A speed=19.2x    frame=19065 fps=462 q=-0.0 size=N/A time=00:13:15.16 bitrate=N/A speed=19.2x    frame=19345 fps=463 q=-0.0 size=N/A time=00:13:26.84 bitrate=N/A speed=19.3x    frame=19623 fps=463 q=-0.0 size=N/A time=00:13:38.44 bitrate=N/A speed=19.3x    frame=19897 fps=464 q=-0.0 size=N/A time=00:13:49.87 bitrate=N/A speed=19.4x    frame=20174 fps=465 q=-0.0 size=N/A time=00:14:01.42 bitrate=N/A speed=19.4x    frame=20448 fps=466 q=-0.0 size=N/A time=00:14:12.85 bitrate=N/A speed=19.4x    frame=20747 fps=467 q=-0.0 size=N/A time=00:14:25.32 bitrate=N/A speed=19.5x    frame=21028 fps=468 q=-0.0 size=N/A time=00:14:37.04 bitrate=N/A speed=19.5x    frame=21309 fps=469 q=-0.0 size=N/A time=00:14:48.76 bitrate=N/A speed=19.6x    frame=21587 fps=470 q=-0.0 size=N/A time=00:15:00.35 bitrate=N/A speed=19.6x    frame=21867 fps=471 q=-0.0 size=N/A time=00:15:12.03 bitrate=N/A speed=19.6x    frame=22147 fps=471 q=-0.0 size=N/A time=00:15:23.71 bitrate=N/A speed=19.7x    frame=22401 fps=472 q=-0.0 size=N/A time=00:15:34.30 bitrate=N/A speed=19.7x    frame=22687 fps=473 q=-0.0 size=N/A time=00:15:46.23 bitrate=N/A speed=19.7x    frame=22957 fps=473 q=-0.0 size=N/A time=00:15:57.49 bitrate=N/A speed=19.7x    frame=23222 fps=473 q=-0.0 size=N/A time=00:16:08.55 bitrate=N/A speed=19.7x    frame=23456 fps=473 q=-0.0 size=N/A time=00:16:18.31 bitrate=N/A speed=19.7x    frame=23670 fps=473 q=-0.0 size=N/A time=00:16:27.23 bitrate=N/A speed=19.7x    frame=23921 fps=473 q=-0.0 size=N/A time=00:16:37.70 bitrate=N/A speed=19.7x    frame=24147 fps=473 q=-0.0 size=N/A time=00:16:47.13 bitrate=N/A speed=19.7x    frame=24314 fps=471 q=-0.0 size=N/A time=00:16:54.09 bitrate=N/A speed=19.6x    frame=24537 fps=471 q=-0.0 size=N/A time=00:17:03.39 bitrate=N/A speed=19.6x    frame=24717 fps=469 q=-0.0 size=N/A time=00:17:10.90 bitrate=N/A speed=19.6x    frame=24971 fps=470 q=-0.0 size=N/A time=00:17:21.49 bitrate=N/A speed=19.6x    frame=25223 fps=470 q=-0.0 size=N/A time=00:17:32.00 bitrate=N/A speed=19.6x    frame=25490 fps=470 q=-0.0 size=N/A time=00:17:43.14 bitrate=N/A speed=19.6x    frame=25768 fps=471 q=-0.0 size=N/A time=00:17:54.74 bitrate=N/A speed=19.6x    frame=26008 fps=471 q=-0.0 size=N/A time=00:18:04.75 bitrate=N/A speed=19.6x    frame=26289 fps=472 q=-0.0 size=N/A time=00:18:16.47 bitrate=N/A speed=19.7x    frame=26559 fps=472 q=-0.0 size=N/A time=00:18:27.73 bitrate=N/A speed=19.7x    frame=26849 fps=473 q=-0.0 size=N/A time=00:18:39.82 bitrate=N/A speed=19.7x    frame=27044 fps=472 q=-0.0 size=N/A time=00:18:47.96 bitrate=N/A speed=19.7x    frame=27295 fps=472 q=-0.0 size=N/A time=00:18:58.42 bitrate=N/A speed=19.7x    frame=27578 fps=473 q=-0.0 size=N/A time=00:19:10.23 bitrate=N/A speed=19.7x    frame=27880 fps=474 q=-0.0 size=N/A time=00:19:22.82 bitrate=N/A speed=19.8x    frame=28124 fps=474 q=-0.0 size=N/A time=00:19:33.00 bitrate=N/A speed=19.8x    frame=28334 fps=473 q=-0.0 size=N/A time=00:19:41.76 bitrate=N/A speed=19.7x    frame=28604 fps=474 q=-0.0 size=N/A time=00:19:53.02 bitrate=N/A speed=19.8x    frame=28871 fps=474 q=-0.0 size=N/A time=00:20:04.16 bitrate=N/A speed=19.8x    frame=29138 fps=474 q=-0.0 size=N/A time=00:20:15.29 bitrate=N/A speed=19.8x    frame=29428 fps=475 q=-0.0 size=N/A time=00:20:27.39 bitrate=N/A speed=19.8x    frame=29694 fps=475 q=-0.0 size=N/A time=00:20:38.48 bitrate=N/A speed=19.8x    frame=29983 fps=476 q=-0.0 size=N/A time=00:20:50.54 bitrate=N/A speed=19.9x    frame=30276 fps=477 q=-0.0 size=N/A time=00:21:02.76 bitrate=N/A speed=19.9x    frame=30517 fps=477 q=-0.0 size=N/A time=00:21:12.81 bitrate=N/A speed=19.9x    frame=30771 fps=477 q=-0.0 size=N/A time=00:21:23.40 bitrate=N/A speed=19.9x    frame=31005 fps=477 q=-0.0 size=N/A time=00:21:33.16 bitrate=N/A speed=19.9x    frame=31246 fps=477 q=-0.0 size=N/A time=00:21:43.21 bitrate=N/A speed=19.9x    frame=31488 fps=477 q=-0.0 size=N/A time=00:21:53.31 bitrate=N/A speed=19.9x    frame=31736 fps=477 q=-0.0 size=N/A time=00:22:03.65 bitrate=N/A speed=19.9x    frame=31971 fps=476 q=-0.0 size=N/A time=00:22:13.45 bitrate=N/A speed=19.9x    frame=32203 fps=476 q=-0.0 size=N/A time=00:22:23.13 bitrate=N/A speed=19.9x    frame=32467 fps=476 q=-0.0 size=N/A time=00:22:34.14 bitrate=N/A speed=19.9x    frame=32738 fps=477 q=-0.0 size=N/A time=00:22:45.44 bitrate=N/A speed=19.9x    frame=32978 fps=477 q=-0.0 size=N/A time=00:22:55.45 bitrate=N/A speed=19.9x    frame=33199 fps=476 q=-0.0 size=N/A time=00:23:04.67 bitrate=N/A speed=19.9x    frame=33440 fps=476 q=-0.0 size=N/A time=00:23:14.72 bitrate=N/A speed=19.9x    [Parsed_ssim_10 @ 00000209160ccb40] SSIM Y:0.993614 (21.947880) U:0.995311 (23.289215) V:0.995118 (23.113644) All:0.994148 (22.326658)
[out#0/null @ 0000020915c14580] video:14394KiB audio:262004KiB subtitle:0KiB other streams:0KiB global headers:0KiB muxing overhead: unknown
frame=33499 fps=476 q=-0.0 Lsize=N/A time=00:23:17.18 bitrate=N/A speed=19.9x    
